<svg xmlns="http://www.w3.org/2000/svg" xmlns:xlink="http://www.w3.org/1999/xlink" width="1040" height="713.01"><rect width="1040" height="713.01" rx="0" ry="0" class="a"></rect><svg height="673.01" viewBox="0 0 100 67.301" width="1000" x="20" xmlns="http://www.w3.org/2000/svg" xmlns:xlink="http://www.w3.org/1999/xlink" y="20"><style>.a{fill:rgb(40,45,53)}.b{font-family:'Fira Code',Monaco,Consolas,Menlo,'Bitstream Vera Sans Mono','Powerline Symbols',monospace}.c{fill:rgb(185,192,203);white-space:pre}.d{fill:transparent}.e{fill:rgb(185,192,203);font-weight:bold;white-space:pre}.f{fill:rgb(185,191,202);font-weight:bold;white-space:pre}.g{fill:rgb(113,190,242);font-style:italic;white-space:pre}</style><g font-family="&#x27;Fira Code&#x27;,Monaco,Consolas,Menlo,&#x27;Bitstream Vera Sans Mono&#x27;,&#x27;Powerline Symbols&#x27;,monospace" font-size="1.67" class="b"><defs><symbol id="1"><text x="0" y="1.67" class="c">&gt;</text></symbol><symbol id="a"><rect height="32" width="100" x="0" y="0" class="d"></rect></symbol></defs><rect height="67.301" width="100" class="a"></rect><svg x="0" y="0" width="100"><svg x="0"><use xlink:href="#a"></use><text x="0" y="1.67" class="c">library(lmtp)</text><text x="0" y="3.8409999999999997" class="e">lmtp</text><text x="4.008" y="3.8409999999999997" class="c">:</text><text x="6.012" y="3.8409999999999997" class="c">Causal</text><text x="13.026" y="3.8409999999999997" class="c">Effects</text><text x="21.041999999999998" y="3.8409999999999997" class="c">Based</text><text x="27.054" y="3.8409999999999997" class="c">on</text><text x="30.059999999999995" y="3.8409999999999997" class="c">Longitudinal</text><text x="43.086" y="3.8409999999999997" class="c">Modified</text><text x="52.104" y="3.8409999999999997" class="c">Treatment</text><text x="62.123999999999995" y="3.8409999999999997" class="c">Policies</text><text x="0" y="6.012" class="e">Version</text><text x="7.013999999999999" y="6.012" class="c">:</text><text x="9.017999999999999" y="6.012" class="c">0.0.3.9000</text><use xlink:href="#1" y="8.684"></use><text x="0" y="12.525" class="c">&gt;</text><text x="2.004" y="12.525" class="c">#</text><text x="4.008" y="12.525" class="c">Define</text><text x="11.021999999999998" y="12.525" class="c">treatment</text><text x="21.041999999999998" y="12.525" class="c">variables,</text><text x="32.064" y="12.525" class="c">covariates,</text><text x="44.087999999999994" y="12.525" class="c">and</text><text x="48.096" y="12.525" class="c">a</text><text x="50.1" y="12.525" class="c">treatment</text><text x="60.11999999999999" y="12.525" class="c">policy</text><text x="0" y="14.696" class="c">&gt;</text><text x="2.004" y="14.696" class="c">a</text><text x="4.008" y="14.696" class="c">&lt;-</text><text x="7.013999999999999" y="14.696" class="c">c(&quot;A_1&quot;,</text><text x="16.032" y="14.696" class="c">&quot;A_2&quot;,</text><text x="23.045999999999996" y="14.696" class="c">&quot;A_3&quot;,</text><text x="30.059999999999995" y="14.696" class="c">&quot;A_4&quot;)</text><text x="0" y="16.866999999999997" class="c">&gt;</text><text x="2.004" y="16.866999999999997" class="c">nodes</text><text x="8.016" y="16.866999999999997" class="c">&lt;-</text><text x="11.021999999999998" y="16.866999999999997" class="c">list(c(&quot;L_1&quot;),</text><text x="26.052" y="16.866999999999997" class="c">c(&quot;L_2&quot;),</text><text x="36.071999999999996" y="16.866999999999997" class="c">c(&quot;L_3&quot;),</text><text x="46.09199999999999" y="16.866999999999997" class="c">c(&quot;L_4&quot;))</text><use xlink:href="#1" y="17.368"></use><text x="0" y="21.209000000000003" class="c">&gt;</text><text x="2.004" y="21.209000000000003" class="c">d</text><text x="4.008" y="21.209000000000003" class="c">&lt;-</text><text x="7.013999999999999" y="21.209000000000003" class="c">function(A)</text><text x="19.037999999999997" y="21.209000000000003" class="c">{</text><text x="0" y="23.380000000000003" class="c">+</text><text x="4.008" y="23.380000000000003" class="c">delta</text><text x="10.02" y="23.380000000000003" class="c">&lt;-</text><text x="13.026" y="23.380000000000003" class="c">1</text><text x="0" y="25.550999999999995" class="c">+</text><text x="4.008" y="25.550999999999995" class="c">return((A</text><text x="14.027999999999999" y="25.550999999999995" class="c">-</text><text x="16.032" y="25.550999999999995" class="c">delta)</text><text x="23.045999999999996" y="25.550999999999995" class="c">*</text><text x="25.05" y="25.550999999999995" class="c">(A</text><text x="28.055999999999997" y="25.550999999999995" class="c">-</text><text x="30.059999999999995" y="25.550999999999995" class="c">delta</text><text x="36.071999999999996" y="25.550999999999995" class="c">&gt;=</text><text x="39.077999999999996" y="25.550999999999995" class="c">0)</text><text x="42.083999999999996" y="25.550999999999995" class="c">+</text><text x="44.087999999999994" y="25.550999999999995" class="c">A</text><text x="46.09199999999999" y="25.550999999999995" class="c">*</text><text x="48.096" y="25.550999999999995" class="c">(A</text><text x="51.102" y="25.550999999999995" class="c">-</text><text x="53.105999999999995" y="25.550999999999995" class="c">delta</text><text x="59.117999999999995" y="25.550999999999995" class="c">&lt;</text><text x="61.12199999999999" y="25.550999999999995" class="c">0))</text><text x="0" y="27.722" class="c">+</text><text x="2.004" y="27.722" class="c">}</text><use xlink:href="#1" y="28.223000000000003"></use><text x="0" y="32.064" class="c">&gt;</text><text x="2.004" y="32.064" class="c">#</text><text x="4.008" y="32.064" class="c">Define</text><text x="11.021999999999998" y="32.064" class="c">a</text><text x="13.026" y="32.064" class="c">set</text><text x="17.034" y="32.064" class="c">of</text><text x="20.04" y="32.064" class="c">sl3</text><text x="24.048" y="32.064" class="c">learners</text><text x="0" y="34.235" class="c">&gt;</text><text x="2.004" y="34.235" class="c">lrnrs</text><text x="8.016" y="34.235" class="c">&lt;-</text><text x="11.021999999999998" y="34.235" class="c">sl3::make_learner_stack(sl3::Lrnr_glm,</text><text x="50.1" y="34.235" class="c">sl3::Lrnr_mean)</text><use xlink:href="#1" y="34.736"></use><text x="0" y="38.577000000000005" class="c">&gt;</text><text x="2.004" y="38.577000000000005" class="c">#</text><text x="4.008" y="38.577000000000005" class="c">calculate</text><text x="14.027999999999999" y="38.577000000000005" class="c">estimates!</text><text x="0" y="40.748000000000005" class="c">&gt;</text><text x="2.004" y="40.748000000000005" class="c">lmtp_tmle(sim_t4,</text><text x="20.04" y="40.748000000000005" class="c">a,</text><text x="23.045999999999996" y="40.748000000000005" class="c">&quot;Y&quot;,</text><text x="28.055999999999997" y="40.748000000000005" class="c">nodes,</text><text x="35.06999999999999" y="40.748000000000005" class="c">k</text><text x="37.074" y="40.748000000000005" class="c">=</text><text x="39.077999999999996" y="40.748000000000005" class="c">0,</text><text x="42.083999999999996" y="40.748000000000005" class="c">shift</text><text x="48.096" y="40.748000000000005" class="c">=</text><text x="50.1" y="40.748000000000005" class="c">d,</text><text x="53.105999999999995" y="40.748000000000005" class="c">outcome_type</text><text x="66.13199999999999" y="40.748000000000005" class="c">=</text><text x="68.136" y="40.748000000000005" class="c">&quot;binomial&quot;,</text><text x="0" y="42.919" class="c">+</text><text x="12.024" y="42.919" class="c">learners_outcome</text><text x="29.058" y="42.919" class="c">=</text><text x="31.061999999999998" y="42.919" class="c">lrnrs,</text><text x="38.07599999999999" y="42.919" class="c">learners_trt</text><text x="51.102" y="42.919" class="c">=</text><text x="53.105999999999995" y="42.919" class="c">lrnrs)</text><text x="2.004" y="45.09" class="f">Estimating</text><text x="13.026" y="45.09" class="f">propensity</text><text x="24.048" y="45.09" class="f">[===========================================]</text><text x="70.13999999999999" y="45.09" class="f">100%</text><text x="76.15199999999999" y="45.09" class="f">2s</text><text x="2.004" y="47.261" class="f">Estimating</text><text x="13.026" y="47.261" class="f">regression</text><text x="24.048" y="47.261" class="f">[===========================================]</text><text x="70.13999999999999" y="47.261" class="f">100%</text><text x="76.15199999999999" y="47.261" class="f">1s</text><text x="0" y="51.603" class="e">LMTP</text><text x="5.01" y="51.603" class="e">Estimator</text><text x="14.027999999999999" y="51.603" class="c">:</text><text x="16.032" y="51.603" class="c">TMLE</text><text x="3.006" y="53.774" class="e">Trt.</text><text x="8.016" y="53.774" class="e">Policy</text><text x="14.027999999999999" y="53.774" class="c">:</text><text x="16.032" y="53.774" class="g">(d)</text><text x="0" y="58.11600000000001" class="e">Population</text><text x="11.021999999999998" y="58.11600000000001" class="e">intervention</text><text x="24.048" y="58.11600000000001" class="e">effect</text><text x="6.012" y="60.287" class="e">Estimate</text><text x="14.027999999999999" y="60.287" class="c">:</text><text x="16.032" y="60.287" class="c">0.517</text><text x="4.008" y="62.458" class="e">Std.</text><text x="9.017999999999999" y="62.458" class="e">error</text><text x="14.027999999999999" y="62.458" class="c">:</text><text x="16.032" y="62.458" class="c">0.0286</text><text x="8.016" y="64.629" class="e">95%</text><text x="12.024" y="64.629" class="e">CI</text><text x="14.027999999999999" y="64.629" class="c">:</text><text x="16.032" y="64.629" class="c">(0.4609,</text><text x="25.05" y="64.629" class="c">0.573)</text><use xlink:href="#1" y="67.301"></use></svg></svg></g></svg></svg>